<?xml version="1.0" standalone="no"?>
<!DOCTYPE svg PUBLIC "-//W3C//DTD SVG 20010904//EN"
 "http://www.w3.org/TR/2001/REC-SVG-20010904/DTD/svg10.dtd">
<svg version="1.0" xmlns="http://www.w3.org/2000/svg"
 width="512.000000pt" height="512.000000pt" viewBox="0 0 512.000000 512.000000"
 preserveAspectRatio="xMidYMid meet">
<metadata>
Created by potrace 1.14, written by Peter Selinger 2001-2017
</metadata>
<g transform="translate(0.000000,512.000000) scale(0.100000,-0.100000)"
fill="#000000" stroke="none">
<path d="M425 5015 c-25 -24 -25 -24 -25 -240 l0 -215 -56 0 c-87 0 -133 -18
-189 -75 -102 -101 -102 -229 0 -330 56 -57 102 -75 189 -75 l56 0 0 -160 0
-160 -56 0 c-87 0 -133 -18 -189 -75 -71 -70 -91 -145 -63 -239 16 -55 99
-138 154 -154 23 -7 67 -12 98 -12 l56 0 0 -160 0 -160 -56 0 c-87 0 -133 -18
-189 -75 -102 -101 -102 -229 0 -330 56 -57 102 -75 189 -75 l56 0 0 -160 0
-160 -56 0 c-87 0 -133 -18 -189 -75 -102 -101 -102 -229 0 -330 56 -57 102
-75 189 -75 l56 0 0 -160 0 -160 -56 0 c-31 0 -75 -5 -98 -12 -55 -16 -138
-99 -154 -154 -28 -94 -8 -169 63 -239 56 -57 102 -75 189 -75 l56 0 0 -215
c0 -216 0 -216 25 -240 l24 -25 831 0 830 0 -55 -110 c-30 -60 -55 -121 -55
-135 0 -33 42 -75 75 -75 14 0 169 72 345 160 l320 160 645 0 646 0 24 25 25
24 0 638 0 638 454 455 c305 305 462 470 477 500 19 35 24 61 24 120 0 88 -21
135 -92 211 -64 69 -139 103 -222 103 -115 0 -137 -16 -403 -282 l-238 -236 0
1197 0 1198 -25 24 -24 25 -1791 0 -1791 0 -24 -25z m775 -2295 l0 -2160 -320
0 -320 0 0 159 0 159 78 3 c99 5 161 39 207 113 27 44 30 58 30 126 0 68 -3
82 -30 126 -46 74 -108 108 -207 113 l-78 3 0 158 0 158 78 3 c99 5 161 39
207 113 27 44 30 58 30 126 0 68 -3 82 -30 126 -46 74 -108 108 -207 113 l-78
3 0 158 0 158 78 3 c99 5 161 39 207 113 27 44 30 58 30 126 0 68 -3 82 -30
126 -46 74 -108 108 -207 113 l-78 3 0 158 0 158 78 3 c99 5 161 39 207 113
27 44 30 58 30 126 0 68 -3 82 -30 126 -46 74 -108 108 -207 113 l-78 3 0 158
0 158 78 3 c99 5 161 39 207 113 27 44 30 58 30 126 0 68 -3 82 -30 126 -46
74 -108 108 -207 113 l-78 3 0 159 0 159 320 0 320 0 0 -2160z m1760 2000 l0
-160 -615 0 -616 0 -24 -25 -25 -24 0 -591 0 -591 25 -24 24 -25 911 0 911 0
24 25 c24 24 25 28 25 180 l0 156 26 -20 c36 -28 79 -27 109 4 l25 24 0 616 0
615 80 0 80 0 0 -1222 0 -1223 -794 -795 -794 -795 -72 -142 -71 -143 -415 0
-414 0 0 2160 0 2160 800 0 800 0 0 -160z m640 -342 l0 -502 -104 102 c-89 88
-108 102 -136 102 -28 0 -47 -14 -136 -102 l-104 -102 0 502 0 502 240 0 240
0 0 -502z m-2905 -3 c16 -15 25 -36 25 -55 0 -19 -9 -40 -25 -55 -24 -25 -26
-25 -215 -25 -189 0 -191 0 -215 25 -16 15 -25 36 -25 55 0 19 9 40 25 55 24
25 26 25 215 25 189 0 191 0 215 -25z m2265 -55 l0 -80 -480 0 -480 0 0 -80 0
-80 480 0 480 0 0 -80 0 -80 -480 0 -480 0 0 -80 0 -80 480 0 480 0 0 -55 c0
-68 29 -105 81 -105 28 0 51 18 176 142 l143 142 40 -39 40 -39 0 -183 0 -183
-800 0 -800 0 0 480 0 480 560 0 560 0 0 -80z m-2265 -745 c16 -15 25 -36 25
-55 0 -19 -9 -40 -25 -55 -24 -25 -26 -25 -215 -25 -189 0 -191 0 -215 25 -16
15 -25 36 -25 55 0 19 9 40 25 55 24 25 26 25 215 25 189 0 191 0 215 -25z
m4073 -629 c15 -8 45 -33 67 -56 36 -37 40 -46 40 -90 l0 -50 -117 -117 -118
-118 -102 102 -103 103 100 101 c139 141 170 158 233 125z m-4073 -171 c16
-15 25 -36 25 -55 0 -19 -9 -40 -25 -55 -24 -25 -26 -25 -215 -25 -189 0 -191
0 -215 25 -16 15 -25 36 -25 55 0 19 9 40 25 55 24 25 26 25 215 25 189 0 191
0 215 -25z m3730 -275 l100 -100 -903 -903 -902 -902 -102 103 -103 102 900
900 c495 495 902 900 905 900 3 0 50 -45 105 -100z m-3730 -525 c16 -15 25
-36 25 -55 0 -19 -9 -40 -25 -55 -24 -25 -26 -25 -215 -25 -189 0 -191 0 -215
25 -16 15 -25 36 -25 55 0 19 9 40 25 55 24 25 26 25 215 25 189 0 191 0 215
-25z m3225 -915 l0 -500 -502 0 -503 0 500 500 c275 275 501 500 502 500 2 0
3 -225 3 -500z m-3225 115 c16 -15 25 -36 25 -55 0 -19 -9 -40 -25 -55 -24
-25 -26 -25 -215 -25 -189 0 -191 0 -215 25 -16 15 -25 36 -25 55 0 19 9 40
25 55 24 25 26 25 215 25 189 0 191 0 215 -25z m1809 -594 l79 -79 -162 -81
-161 -81 80 160 c44 88 81 160 83 160 1 0 38 -36 81 -79z"/>
</g>
</svg>
